<svg width="500" height="500" viewBox="0 0 500 500" fill="none" xmlns="http://www.w3.org/2000/svg">
<rect width="500" height="500" fill="white"/>
<path d="M170.9 290L164.6 270.2H117.8L111.5 290H80L122.84 164H159.56L202.4 290H170.9ZM126.44 243.2H155.96L141.2 196.94L126.44 243.2ZM268.693 292.52C230.713 292.52 203.173 264.08 203.173 227C203.173 189.92 230.713 161.48 268.693 161.48C291.553 161.48 311.713 172.82 322.693 190.64L297.853 205.04C292.273 195.32 281.473 189.56 268.693 189.56C246.373 189.56 231.973 204.5 231.973 227C231.973 249.5 246.373 264.44 268.693 264.44C281.473 264.44 292.453 258.68 297.853 248.96L322.693 263.36C311.893 281.18 291.733 292.52 268.693 292.52ZM364.991 262.28H415.391V290H336.191V164H414.491V191.72H364.991V212.6H409.991V239.96H364.991V262.28Z" fill="url(#paint0_linear_1537_12)"/>
<path d="M80.82 307.1H88.34V340H80.82V307.1ZM101.513 332.762H114.673V340H93.9929V307.1H114.438V314.338H101.513V319.79H113.263V326.934H101.513V332.762ZM126.436 332.762H138.186V340H118.916V307.1H126.436V332.762ZM160.283 307.1V314.338H151.823V340H144.303V314.338H135.843V307.1H160.283ZM174.172 340.658C167.263 340.658 162.845 337.368 161.012 332.527L167.498 328.767C168.673 331.493 170.694 333.326 174.407 333.326C177.979 333.326 178.872 331.916 178.872 330.647C178.872 328.626 176.992 327.827 172.057 326.464C167.169 325.101 162.375 322.751 162.375 316.453C162.375 310.108 167.733 306.442 173.42 306.442C178.825 306.442 183.055 309.027 185.452 313.868L179.107 317.581C177.979 315.231 176.428 313.774 173.42 313.774C171.07 313.774 169.895 314.949 169.895 316.265C169.895 317.769 170.694 318.803 175.817 320.354C180.799 321.858 186.392 323.597 186.392 330.553C186.392 336.898 181.316 340.658 174.172 340.658ZM222.815 340L221.17 334.83H208.95L207.305 340H199.08L210.266 307.1H219.854L231.04 340H222.815ZM211.206 327.78H218.914L215.06 315.701L211.206 327.78ZM248.35 340.658C238.433 340.658 231.242 333.232 231.242 323.55C231.242 313.868 238.433 306.442 248.35 306.442C254.319 306.442 259.583 309.403 262.45 314.056L255.964 317.816C254.507 315.278 251.687 313.774 248.35 313.774C242.522 313.774 238.762 317.675 238.762 323.55C238.762 329.425 242.522 333.326 248.35 333.326C251.687 333.326 254.554 331.822 255.964 329.284L262.45 333.044C259.63 337.697 254.366 340.658 248.35 340.658ZM286.889 340L285.244 334.83H273.024L271.379 340H263.154L274.34 307.1H283.928L295.114 340H286.889ZM275.28 327.78H282.988L279.134 315.701L275.28 327.78ZM311.08 307.1C320.151 307.1 327.06 314.244 327.06 323.55C327.06 332.856 320.151 340 311.08 340H297.92V307.1H311.08ZM311.08 332.762C316.25 332.762 319.822 329.19 319.822 323.55C319.822 317.91 316.25 314.338 311.08 314.338H305.44V332.762H311.08ZM338.808 332.762H351.968V340H331.288V307.1H351.733V314.338H338.808V319.79H350.558V326.934H338.808V332.762ZM389.111 307.1V340H381.591V320.871L373.084 334.83H372.238L363.731 320.871V340H356.211V307.1H363.731L372.661 321.717L381.591 307.1H389.111ZM421.555 307.1L410.51 327.357V340H402.99V327.357L391.945 307.1H400.499L406.75 319.79L413.001 307.1H421.555Z" fill="#3F88C5"/>
<path d="M170.9 290L164.6 270.2H117.8L111.5 290H80L122.84 164H159.56L202.4 290H170.9ZM126.44 243.2H155.96L141.2 196.94L126.44 243.2ZM268.693 292.52C230.713 292.52 203.173 264.08 203.173 227C203.173 189.92 230.713 161.48 268.693 161.48C291.553 161.48 311.713 172.82 322.693 190.64L297.853 205.04C292.273 195.32 281.473 189.56 268.693 189.56C246.373 189.56 231.973 204.5 231.973 227C231.973 249.5 246.373 264.44 268.693 264.44C281.473 264.44 292.453 258.68 297.853 248.96L322.693 263.36C311.893 281.18 291.733 292.52 268.693 292.52ZM364.991 262.28H415.391V290H336.191V164H414.491V191.72H364.991V212.6H409.991V239.96H364.991V262.28Z" fill="url(#paint1_linear_1537_12)"/>
<path d="M80.82 307.1H88.34V340H80.82V307.1ZM101.513 332.762H114.673V340H93.9929V307.1H114.438V314.338H101.513V319.79H113.263V326.934H101.513V332.762ZM126.436 332.762H138.186V340H118.916V307.1H126.436V332.762ZM160.283 307.1V314.338H151.823V340H144.303V314.338H135.843V307.1H160.283ZM174.172 340.658C167.263 340.658 162.845 337.368 161.012 332.527L167.498 328.767C168.673 331.493 170.694 333.326 174.407 333.326C177.979 333.326 178.872 331.916 178.872 330.647C178.872 328.626 176.992 327.827 172.057 326.464C167.169 325.101 162.375 322.751 162.375 316.453C162.375 310.108 167.733 306.442 173.42 306.442C178.825 306.442 183.055 309.027 185.452 313.868L179.107 317.581C177.979 315.231 176.428 313.774 173.42 313.774C171.07 313.774 169.895 314.949 169.895 316.265C169.895 317.769 170.694 318.803 175.817 320.354C180.799 321.858 186.392 323.597 186.392 330.553C186.392 336.898 181.316 340.658 174.172 340.658ZM222.815 340L221.17 334.83H208.95L207.305 340H199.08L210.266 307.1H219.854L231.04 340H222.815ZM211.206 327.78H218.914L215.06 315.701L211.206 327.78ZM248.35 340.658C238.433 340.658 231.242 333.232 231.242 323.55C231.242 313.868 238.433 306.442 248.35 306.442C254.319 306.442 259.583 309.403 262.45 314.056L255.964 317.816C254.507 315.278 251.687 313.774 248.35 313.774C242.522 313.774 238.762 317.675 238.762 323.55C238.762 329.425 242.522 333.326 248.35 333.326C251.687 333.326 254.554 331.822 255.964 329.284L262.45 333.044C259.63 337.697 254.366 340.658 248.35 340.658ZM286.889 340L285.244 334.83H273.024L271.379 340H263.154L274.34 307.1H283.928L295.114 340H286.889ZM275.28 327.78H282.988L279.134 315.701L275.28 327.78ZM311.08 307.1C320.151 307.1 327.06 314.244 327.06 323.55C327.06 332.856 320.151 340 311.08 340H297.92V307.1H311.08ZM311.08 332.762C316.25 332.762 319.822 329.19 319.822 323.55C319.822 317.91 316.25 314.338 311.08 314.338H305.44V332.762H311.08ZM338.808 332.762H351.968V340H331.288V307.1H351.733V314.338H338.808V319.79H350.558V326.934H338.808V332.762ZM389.111 307.1V340H381.591V320.871L373.084 334.83H372.238L363.731 320.871V340H356.211V307.1H363.731L372.661 321.717L381.591 307.1H389.111ZM421.555 307.1L410.51 327.357V340H402.99V327.357L391.945 307.1H400.499L406.75 319.79L413.001 307.1H421.555Z" fill="#FF9700"/>
<path d="M170.9 290L164.6 270.2H117.8L111.5 290H80L122.84 164H159.56L202.4 290H170.9ZM126.44 243.2H155.96L141.2 196.94L126.44 243.2ZM268.693 292.52C230.713 292.52 203.173 264.08 203.173 227C203.173 189.92 230.713 161.48 268.693 161.48C291.553 161.48 311.713 172.82 322.693 190.64L297.853 205.04C292.273 195.32 281.473 189.56 268.693 189.56C246.373 189.56 231.973 204.5 231.973 227C231.973 249.5 246.373 264.44 268.693 264.44C281.473 264.44 292.453 258.68 297.853 248.96L322.693 263.36C311.893 281.18 291.733 292.52 268.693 292.52ZM364.991 262.28H415.391V290H336.191V164H414.491V191.72H364.991V212.6H409.991V239.96H364.991V262.28Z" fill="url(#paint2_linear_1537_12)"/>
<path d="M80.82 307.1H88.34V340H80.82V307.1ZM101.513 332.762H114.673V340H93.9929V307.1H114.438V314.338H101.513V319.79H113.263V326.934H101.513V332.762ZM126.436 332.762H138.186V340H118.916V307.1H126.436V332.762ZM160.283 307.1V314.338H151.823V340H144.303V314.338H135.843V307.1H160.283ZM174.172 340.658C167.263 340.658 162.845 337.368 161.012 332.527L167.498 328.767C168.673 331.493 170.694 333.326 174.407 333.326C177.979 333.326 178.872 331.916 178.872 330.647C178.872 328.626 176.992 327.827 172.057 326.464C167.169 325.101 162.375 322.751 162.375 316.453C162.375 310.108 167.733 306.442 173.42 306.442C178.825 306.442 183.055 309.027 185.452 313.868L179.107 317.581C177.979 315.231 176.428 313.774 173.42 313.774C171.07 313.774 169.895 314.949 169.895 316.265C169.895 317.769 170.694 318.803 175.817 320.354C180.799 321.858 186.392 323.597 186.392 330.553C186.392 336.898 181.316 340.658 174.172 340.658ZM222.815 340L221.17 334.83H208.95L207.305 340H199.08L210.266 307.1H219.854L231.04 340H222.815ZM211.206 327.78H218.914L215.06 315.701L211.206 327.78ZM248.35 340.658C238.433 340.658 231.242 333.232 231.242 323.55C231.242 313.868 238.433 306.442 248.35 306.442C254.319 306.442 259.583 309.403 262.45 314.056L255.964 317.816C254.507 315.278 251.687 313.774 248.35 313.774C242.522 313.774 238.762 317.675 238.762 323.55C238.762 329.425 242.522 333.326 248.35 333.326C251.687 333.326 254.554 331.822 255.964 329.284L262.45 333.044C259.63 337.697 254.366 340.658 248.35 340.658ZM286.889 340L285.244 334.83H273.024L271.379 340H263.154L274.34 307.1H283.928L295.114 340H286.889ZM275.28 327.78H282.988L279.134 315.701L275.28 327.78ZM311.08 307.1C320.151 307.1 327.06 314.244 327.06 323.55C327.06 332.856 320.151 340 311.08 340H297.92V307.1H311.08ZM311.08 332.762C316.25 332.762 319.822 329.19 319.822 323.55C319.822 317.91 316.25 314.338 311.08 314.338H305.44V332.762H311.08ZM338.808 332.762H351.968V340H331.288V307.1H351.733V314.338H338.808V319.79H350.558V326.934H338.808V332.762ZM389.111 307.1V340H381.591V320.871L373.084 334.83H372.238L363.731 320.871V340H356.211V307.1H363.731L372.661 321.717L381.591 307.1H389.111ZM421.555 307.1L410.51 327.357V340H402.99V327.357L391.945 307.1H400.499L406.75 319.79L413.001 307.1H421.555Z" fill="url(#paint3_linear_1537_12)"/>
<defs>
<linearGradient id="paint0_linear_1537_12" x1="250.5" y1="118" x2="250.5" y2="339" gradientUnits="userSpaceOnUse">
<stop stop-color="#3F88C5"/>
<stop offset="1" stop-color="#1E425F"/>
</linearGradient>
<linearGradient id="paint1_linear_1537_12" x1="250.5" y1="118" x2="250.5" y2="339" gradientUnits="userSpaceOnUse">
<stop stop-color="#FFB140"/>
<stop offset="1" stop-color="#FF9700"/>
</linearGradient>
<linearGradient id="paint2_linear_1537_12" x1="250.5" y1="118" x2="250.5" y2="339" gradientUnits="userSpaceOnUse">
<stop stop-color="#3F88C5"/>
<stop offset="1" stop-color="#1E425F"/>
</linearGradient>
<linearGradient id="paint3_linear_1537_12" x1="250" y1="295" x2="250" y2="353" gradientUnits="userSpaceOnUse">
<stop stop-color="#3F88C5"/>
<stop offset="1" stop-color="#1E425F"/>
</linearGradient>
</defs>
</svg>
